<?xml version="1.0" encoding="UTF-8" standalone="no"?>
<!-- Created with Inkscape (http://www.inkscape.org/) -->

<svg
   version="1.1"
   id="svg1"
   width="1400"
   height="1400"
   viewBox="0 0 1400 1400"
   sodipodi:docname="stable_pretraining.svg"
   inkscape:version="1.4.2 (ebf0e940, 2025-05-08)"
   xmlns:inkscape="http://www.inkscape.org/namespaces/inkscape"
   xmlns:sodipodi="http://sodipodi.sourceforge.net/DTD/sodipodi-0.dtd"
   xmlns="http://www.w3.org/2000/svg"
   xmlns:svg="http://www.w3.org/2000/svg">
  <defs
     id="defs1" />
  <sodipodi:namedview
     id="namedview1"
     pagecolor="#ffffff"
     bordercolor="#000000"
     borderopacity="0.25"
     inkscape:showpageshadow="2"
     inkscape:pageopacity="0.0"
     inkscape:pagecheckerboard="0"
     inkscape:deskcolor="#d1d1d1"
     inkscape:zoom="0.45414728"
     inkscape:cx="516.35232"
     inkscape:cy="662.78059"
     inkscape:window-width="1712"
     inkscape:window-height="955"
     inkscape:window-x="0"
     inkscape:window-y="39"
     inkscape:window-maximized="0"
     inkscape:current-layer="g1">
    <inkscape:page
       x="0"
       y="0"
       width="1400"
       height="1400"
       id="page2"
       margin="0"
       bleed="0" />
  </sodipodi:namedview>
  <g
     inkscape:groupmode="layer"
     inkscape:label="Image"
     id="g1">
    <path
       style="fill:#000000;stroke-width:0.9615"
       d="m 505.24723,621.28952 -8.7199,-8.71989 -3.7731,2.22976 c -3.65495,2.15994 -4.583,2.23913 -29.63404,2.52847 -18.55356,0.21431 -26.64899,-0.0277 -28.64996,-0.85655 -5.55864,-2.30247 -5.58285,-2.51696 -5.58285,-49.46635 v -42.90845 l 2.81054,-2.81053 2.81053,-2.81054 22.42884,0.0181 22.42883,0.0181 12.75401,12.24104 12.75401,12.24103 -0.0141,15.19137 c -0.011,11.78858 0.31598,15.82973 1.45961,18.04129 3.65013,7.05855 3.42743,18.81369 -0.48386,25.54222 l -1.7485,3.00791 7.66043,7.56859 c 8.9423,8.83509 10.70473,11.57967 9.20123,14.3288 -2.99774,5.48129 -5.79541,4.52192 -15.70168,-5.38434 z M 488.07972,604.8812 c 11.28139,-5.30289 13.9058,-18.87895 5.53906,-28.6536 -3.83124,-4.47594 -8.4394,-6.21868 -14.82187,-5.6054 -9.52967,0.91567 -16.25704,8.38588 -16.25704,18.05216 0,5.50878 1.45116,8.88882 5.44278,12.67739 5.96716,5.66359 12.94853,6.88966 20.09707,3.52945 z m 397.27672,6.02799 c -3.4767,-1.01783 -3.60264,-2.5603 -3.60264,-44.125 0,-26.24658 0.35414,-41.4049 0.99533,-42.60296 1.22543,-2.28974 5.92616,-2.49294 8.07024,-0.34886 1.32248,1.32247 1.51093,6.23934 1.51093,39.42149 v 37.91055 h 41.36511 41.36513 l 1.0952,2.40375 c 0.8193,1.79816 0.8193,3.00934 0,4.8075 -0.9655,2.1192 -1.6952,2.40496 -6.1636,2.414 -2.7877,0.006 -22.70144,0.11381 -44.25271,0.24038 -21.55126,0.12657 -39.72361,0.0722 -40.38299,-0.12085 z m 14.66586,-29.93627 c -1.05765,-1.05765 -1.91157,-2.68018 -1.89759,-3.60563 0.0307,-2.0312 21.4294,-24.27786 23.3525,-24.27786 0.74508,0 4.2321,2.92056 7.74891,6.49012 l 6.3942,6.49012 10.69369,-10.88524 10.69361,-10.88525 -3.49371,-3.57779 c -1.92146,-1.96778 -3.49361,-4.05695 -3.49361,-4.6426 0,-0.96485 3.68024,-1.96615 19.02844,-5.17715 7.8517,-1.64267 8.2718,-1.22039 7.5056,7.54494 -0.9817,11.23053 -2.5692,19.45035 -3.7566,19.45035 -0.5844,0 -2.6323,-1.5328 -4.5509,-3.40623 l -3.48829,-3.40622 -13.24071,13.98271 c -8.93368,9.43428 -13.90333,13.98273 -15.27744,13.98273 -1.22288,0 -4.59276,-2.53657 -8.43426,-6.34864 l -6.39766,-6.34864 -7.94111,8.27164 c -4.40047,4.58364 -8.7394,8.27164 -9.73159,8.27164 -0.98476,0 -2.65583,-0.86535 -3.71348,-1.923 z M 535.01836,546.44586 c -4.6953,-2.86308 -5.1735,-5.73279 -5.1735,-31.04615 0,-24.96969 0.40119,-27.21362 5.26139,-29.42807 3.776,-1.72047 8.59738,-1.38813 11.35736,0.78286 2.58993,2.03724 4.53425,8.51986 4.53425,15.11782 v 3.49374 l 5.94831,-8.10818 c 9.90576,-13.50264 20.14176,-27.57302 30.59725,-42.05892 5.46205,-7.56758 10.99801,-14.59855 12.30213,-15.62437 3.7203,-2.9264 8.26462,-2.42043 12.41397,1.38217 2.80348,2.5692 3.54343,3.9574 3.54343,6.64774 0,3.69351 -0.0788,3.8212 -16.7301,27.11646 -5.55266,7.7682 -10.74026,15.05791 -11.528,16.19936 -0.78774,1.14146 -5.7003,7.87054 -10.9168,14.95352 -5.86585,7.96466 -8.80446,12.67811 -7.70201,12.35386 13.1228,-3.8597 14.55156,-4.05517 17.91561,-2.45096 7.32918,3.49504 8.13538,13.83392 1.3958,17.89974 -1.70849,1.03069 -7.97394,3.28026 -13.92322,4.99906 -5.94928,1.71879 -10.81687,3.52723 -10.81687,4.01873 0,0.49151 -0.42557,0.63063 -0.94573,0.30916 -0.52014,-0.32147 -5.35517,0.73469 -10.74449,2.34701 -11.48351,3.43551 -12.80932,3.52202 -16.78878,1.09542 z m 317.98298,0.252 c -17.85289,-4.84258 -40.00691,-12.02065 -41.67019,-13.50145 -1.07538,-0.95739 -2.54559,-3.13553 -3.26712,-4.8403 -1.89086,-4.46755 0.44572,-10.08611 5.1162,-12.30239 3.52563,-1.67302 4.373,-1.57195 17.58762,2.09771 2.35238,0.65325 2.34567,0.62024 -0.63985,-3.14928 -1.65942,-2.0952 -12.57256,-17.16844 -24.25141,-33.49608 -19.65338,-27.47647 -21.23427,-29.98971 -21.23427,-33.75752 0,-3.45628 0.51313,-4.52143 3.39871,-7.055 3.59694,-3.15816 7.27723,-3.79716 11.21892,-1.94793 1.21474,0.56989 7.40071,8.2187 13.74661,16.99737 6.3459,8.77865 15.66529,21.61714 20.70975,28.52995 5.04446,6.91281 10.50095,14.41112 12.12554,16.6629 l 2.95381,4.09417 0.65381,-6.38166 c 1.03101,-10.06316 3.7744,-13.82541 10.08139,-13.82541 3.97114,0 7.45955,1.74028 9.38797,4.68341 1.41704,2.16267 1.59034,5.39325 1.41705,26.4156 -0.2164,26.2515 -0.58056,28.17259 -5.8576,30.90145 -3.35886,1.73693 -4.66326,1.72267 -11.47694,-0.12554 z M 693.29361,457.96408 c -9.96658,-3.0317 -18.19058,-13.29604 -18.24116,-22.76671 l -0.0212,-3.95434 -12.16594,-4.253 -12.16594,-4.25299 -4.5272,4.40963 c -5.26874,5.13191 -10.46688,7.05242 -18.58554,6.86662 -13.25187,-0.30328 -22.84409,-10.67588 -22.92551,-24.79065 -0.0379,-6.57229 2.11541,-12.09213 6.55061,-16.79185 2.62252,-2.77895 2.66492,-2.53399 -2.3138,-13.37283 -1.57891,-3.43736 -3.76215,-8.30496 -4.85165,-10.81688 l -1.98085,-4.56713 h -4.99039 c -7.94719,0 -12.36339,-1.79978 -17.88648,-7.28945 -8.21698,-8.16728 -9.94186,-19.32476 -4.52587,-29.27573 4.38534,-8.0573 14.61395,-13.90077 23.21524,-13.26255 l 4.18446,0.31049 5.83184,-12.80719 5.83186,-12.80719 -2.4676,-2.5768 c -3.92104,-4.09459 -6.79453,-11.48821 -6.83213,-17.57937 -0.0874,-14.15304 13.44704,-26.23593 27.52612,-24.57404 5.71338,0.67441 9.8448,2.75226 14.71456,7.40052 l 3.846,3.67107 12.01875,-4.12546 12.01875,-4.12546 0.57335,-5.17878 c 1.03314,-9.33172 6.80021,-17.13483 15.5636,-21.05833 2.27209,-1.01724 3.24944,-1.88578 2.46661,-2.192 -2.62196,-1.02562 9.43445,0.49582 14.08743,1.77774 9.28102,2.55698 16.28699,10.98557 17.56656,21.13363 l 0.70194,5.56686 12.01875,4.11341 12.01874,4.11341 3.91215,-4.02851 c 2.15168,-2.21568 4.09872,-4.09313 4.32674,-4.17214 13.33618,-4.62018 21.93645,-3.63615 29.98535,3.43087 5.17628,4.54484 7.62888,10.36046 7.64119,18.11891 0.0121,7.6163 -0.72736,9.79755 -5.39399,15.91117 l -3.48323,4.56327 5.60741,12.65517 5.60741,12.65518 6.18573,0.14512 c 14.35273,0.33671 24.3316,10.57484 24.33566,24.96794 0.002,7.69727 -1.99356,12.49874 -7.2488,17.43973 -4.83064,4.54178 -9.23976,6.40966 -16.5549,7.01334 l -6.61527,0.54592 -5.66028,12.80822 -5.66028,12.80822 3.32949,3.88975 c 3.62547,4.23555 6.31837,10.91884 6.31837,15.68108 0,4.9388 -2.62822,12.25966 -5.76101,16.04724 -1.61246,1.94948 -5.34623,4.72581 -8.29728,6.16962 -9.92942,4.85802 -20.98939,2.90302 -28.87877,-5.1047 l -3.69569,-3.75112 -12.25912,4.26023 -12.25912,4.26022 v 3.37182 c 0,12.5202 -12.01359,24.36566 -24.51825,24.17513 -2.64412,-0.0403 -5.89198,-0.40314 -7.21747,-0.80633 z m -14.41627,-37.54231 c 0,-0.51821 -5.66106,-6.773 -12.58014,-13.89954 -10.89843,-11.22521 -12.81098,-12.81319 -14.30695,-11.87893 -1.61066,1.00587 -1.62506,1.31022 -0.21402,4.52491 0.83204,1.89557 1.75356,5.77284 2.04782,8.61616 l 0.53504,5.16966 11.05725,4.16961 c 11.62371,4.38322 13.461,4.83339 13.461,3.29813 z m 55.52661,-3.02831 11.77837,-3.98002 0.0313,-3.95711 c 0.0173,-2.17643 0.81671,-6.23039 1.77653,-9.00882 1.52928,-4.42677 1.57016,-5.19692 0.33052,-6.22574 -1.18018,-0.97946 -3.54621,1.02513 -14.27604,12.09516 -11.82338,12.19828 -14.11441,15.03874 -12.14027,15.05179 0.39661,0.003 6.02139,-1.78624 12.49949,-3.97526 z m -17.45201,-25.836 c 4.93294,-9.78326 8.98471,-18.23292 9.00394,-18.77703 0.0192,-0.5441 -2.71957,-3.71932 -6.0862,-7.05602 l -6.12116,-6.06675 -4.12476,2.10429 c -5.51375,2.81292 -13.87022,2.85125 -19.45273,0.0892 l -4.07281,-2.01506 -6.25457,6.25526 -6.25456,6.25528 9.47665,18.53009 9.47665,18.53011 7.72029,-0.0309 7.72028,-0.0309 z m 13.77834,3.76566 9.00466,-9.69532 -2.84841,-2.84841 -2.84841,-2.84841 -6.25869,12.54374 c -3.44228,6.89906 -6.21259,12.54374 -6.15624,12.54374 0.0563,0 4.15453,-4.36291 9.10709,-9.69534 z m -58.96414,-3.83052 -5.70237,-11.60285 -2.94857,2.94858 -2.94857,2.94857 8.61418,8.65428 c 4.7378,4.75985 8.63072,8.65428 8.65094,8.65428 0.0202,0 -2.5293,-5.22128 -5.66561,-11.60286 z m -27.07567,-3.69438 c 0.76789,-1.24247 -0.45615,-4.02831 -1.48937,-3.38974 -1.14494,0.7076 -1.10823,4.26448 0.044,4.26448 0.49762,0 1.14803,-0.39363 1.44538,-0.87474 z m 113.3029,-2.03098 c -0.40133,-1.53469 -0.78844,-1.7095 -1.84459,-0.83298 -1.00575,0.8347 -1.06872,1.43219 -0.25436,2.41343 1.46389,1.76389 2.72516,0.81419 2.09895,-1.58045 z m -124.64395,-5.51984 1.18404,-4.0988 -10.58118,-8.64108 c -9.65507,-7.88478 -13.08556,-10.07418 -12.21968,-7.79887 0.17627,0.46321 2.83715,6.42919 5.91304,13.25774 l 5.59256,12.41553 4.46359,-0.51786 c 4.29059,-0.49778 4.50949,-0.67671 5.64763,-4.61666 z m 147.69811,-3.59319 c 1.84284,-4.2306 4.32637,-9.76386 5.51897,-12.29611 1.1926,-2.53226 1.92375,-4.84871 1.62479,-5.14767 -0.29896,-0.29897 -5.51007,3.4265 -11.58023,8.2788 l -11.03666,8.82238 1.15811,4.0173 c 1.099,3.81232 1.37697,4.04343 5.44758,4.52952 2.35921,0.28172 4.56563,0.28172 4.90315,0 0.33751,-0.28172 2.12144,-3.97362 3.96429,-8.20422 z m -31.28727,-13.41389 -3.34507,-10.34359 -2.42396,5.29463 c -5.47411,11.95702 -5.46142,11.68159 -0.75908,16.47292 l 4.1704,4.24935 2.85139,-2.66486 2.8514,-2.66485 z m -92.79758,11.29575 c 2.00539,-1.95821 3.63888,-4.01342 3.62999,-4.56713 -0.0372,-2.31519 -6.65531,-17.16467 -7.07543,-15.87556 -0.25234,0.7743 -1.78869,5.11693 -3.4141,9.65027 -1.62542,4.53335 -2.9553,8.72054 -2.9553,9.30485 0,1.02049 4.48208,5.04796 5.61776,5.04796 0.30299,0 2.19169,-1.60218 4.19708,-3.56039 z m 123.08881,-23.25955 c 0.38358,-0.34735 0.21641,-2.19885 -0.3715,-4.11441 l -1.06892,-3.48286 -12.48798,-0.14201 c -9.85922,-0.11211 -12.39331,0.12018 -12.03827,1.10349 0.24734,0.68501 2.10516,5.84537 4.12849,11.46747 l 3.67879,10.22199 8.73098,-7.21106 c 4.80204,-3.96609 9.04483,-7.49526 9.42841,-7.84261 z m -137.33262,3.1517 c 1.90711,-5.34958 3.46747,-10.00083 3.46747,-10.33612 0,-0.33531 -5.55218,-0.60964 -12.33818,-0.60964 h -12.33817 l -1.07555,3.50443 c -0.98315,3.20341 -0.87847,3.65945 1.21867,5.30906 1.2618,0.99254 5.41594,4.41283 9.23141,7.60066 3.81547,3.18783 7.25888,5.45001 7.65204,5.02707 0.39316,-0.42293 2.2752,-5.1459 4.18231,-10.49546 z m 92.30912,-1.18688 c 1.90428,-4.9447 3.46234,-9.16328 3.46234,-9.37462 0,-0.21135 -3.17658,-0.38426 -7.05906,-0.38426 h -7.05905 l -1.17617,3.60562 c -0.64689,1.98309 -1.37445,4.06845 -1.61678,4.63412 -0.42509,0.99229 8.97766,11.56961 9.65348,10.85936 0.1831,-0.19242 1.89096,-4.39552 3.79524,-9.34022 z m -60.6132,4.13422 4.67172,-4.29905 -1.54684,-3.25971 c -0.85076,-1.79284 -1.54683,-3.95151 -1.54683,-4.79703 0,-1.2721 -1.24406,-1.53731 -7.21125,-1.53731 -3.96619,0 -7.21125,0.22604 -7.21125,0.50231 0,1.20193 7.11516,17.76245 7.61676,17.728 0.3058,-0.021 2.65826,-1.97274 5.22769,-4.33721 z m -32.39665,-34.44003 -3.90065,-10.93192 -9.42657,7.64114 c -5.18462,4.20262 -9.42657,7.7594 -9.42657,7.90394 0,0.14454 0.475,1.6254 1.05556,3.29079 l 1.05555,3.02798 h 12.27167 12.27167 z m 33.9747,9.87536 c 0,-0.58111 0.71216,-2.55734 1.58259,-4.39162 l 1.58258,-3.33505 -4.66539,-4.73662 c -2.56598,-2.60514 -4.94505,-4.41482 -5.28685,-4.02151 -0.34179,0.39332 -2.18149,4.50103 -4.0882,9.12824 l -3.46676,8.41313 h 7.17102 c 4.56981,0 7.17101,-0.38326 7.17101,-1.05657 z m 58.87651,-7.83731 c -1.88133,-4.89163 -3.5824,-9.0896 -3.78015,-9.32883 -0.19775,-0.23923 -2.49621,1.7078 -5.10767,4.32675 l -4.74812,4.76171 1.65,4.56712 1.65002,4.56713 h 6.87825 6.87825 z m 45.0217,5.87363 c 1.39836,-3.37592 2.28299,-2.28341 -11.37383,-14.04637 -6.211,-5.3497 -6.9509,-5.75882 -6.9509,-3.84353 0,0.66239 -1.68989,5.63816 -3.75533,11.05725 l -3.75532,9.8529 h 12.29217 12.29218 z M 657.50383,303.35553 c -2.21423,-2.25614 -4.26029,-4.08938 -4.54681,-4.07388 -0.28651,0.0155 -1.89526,1.27895 -3.57499,2.80767 l -3.05407,2.77949 3.30959,8.9707 c 1.82027,4.93388 3.5475,9.61971 3.83829,10.41295 0.30915,0.84334 2.09113,-2.34431 4.29128,-7.67631 l 3.76258,-9.11855 z m 93.75956,-1.43383 c -1.40599,-1.46753 -3.03432,-2.66824 -3.61851,-2.66824 -0.5842,0 -2.85274,1.83887 -5.04122,4.08638 l -3.97905,4.08637 2.23607,5.28825 c 1.22984,2.90854 2.96588,7.01895 3.85788,9.13425 l 1.62181,3.846 3.73967,-10.55238 3.73968,-10.55239 z m -120.57941,3.04612 c 2.86063,-2.35223 3.1735,-3.05112 2.62998,-5.87473 -0.87896,-4.56622 -1.55382,-5.24228 -5.91121,-5.92181 l -3.88034,-0.60514 -5.83773,12.71828 c -3.21076,6.99506 -5.6639,13.03268 -5.45144,13.41694 0.33572,0.60715 7.45538,-4.69226 18.45074,-13.73354 z m 157.10421,12.79452 c -1.44199,-3.79253 -9.49861,-22.00302 -10.46986,-23.66517 -0.86109,-1.47365 -1.72948,-1.67565 -4.9004,-1.13993 -3.4718,0.58655 -3.96831,1.03317 -5.00855,4.50522 -0.91598,3.05723 -0.90273,4.15776 0.064,5.32267 1.26535,1.52466 19.98247,16.65983 20.60261,16.65983 0.19356,0 0.064,-0.75718 -0.28785,-1.68262 z m -95.44986,-2.73179 c 4.8618,-1.83504 10.78462,-1.63301 16.56987,0.56521 l 5.05249,1.91979 6.16509,-6.16509 6.16508,-6.16509 -9.28732,-18.59348 -9.28733,-18.59349 -7.29193,0.12686 c -8.63658,0.15026 -7.1535,-1.56947 -18.87646,21.88869 l -7.63536,15.27873 6.07557,6.13006 c 4.11044,4.14731 6.5461,5.92757 7.53031,5.50403 0.80011,-0.34431 2.96911,-1.19761 4.81999,-1.89622 z m -20.1359,-29.47846 5.83942,-11.77837 -8.87516,8.91603 -8.87517,8.91603 2.7423,2.86235 c 1.50826,1.57428 2.87434,2.86233 3.03574,2.86233 0.1614,0 2.92119,-5.30026 6.13287,-11.77837 z m 67.0243,5.93557 c -0.14061,-0.35543 -4.28003,-4.87962 -9.19871,-10.05375 l -8.94305,-9.4075 5.72256,11.62763 c 3.14741,6.3952 6.02939,12.12408 6.4044,12.73087 0.45943,0.74336 1.59333,0.22997 3.47615,-1.57388 1.53687,-1.47242 2.67927,-2.96793 2.53865,-3.32337 z m -94.48264,0.0738 c 0,-0.70509 -0.54084,-1.46227 -1.20187,-1.68262 -0.71496,-0.23832 -1.20188,0.44336 -1.20188,1.68262 0,1.23927 0.48692,1.92095 1.20188,1.68263 0.66103,-0.22035 1.20187,-0.97753 1.20187,-1.68263 z m 112.81598,-0.93068 c -0.20659,-0.59992 -0.83308,-0.59992 -1.76275,0 -1.28199,0.82727 -1.28199,1.03409 0,1.86137 1.47886,0.9543 2.39811,-0.0163 1.76275,-1.86137 z m -78.83473,-33.4262 c 0.3816,-1.63004 0.46214,-1.65033 -14.2705,3.59567 l -10.09575,3.59489 -0.56135,5.65079 c -0.30875,3.10794 -1.25799,6.98854 -2.10943,8.62358 -1.42316,2.73295 -1.42311,3.09774 6.3e-4,4.52148 1.42391,1.42392 2.56215,0.49607 14.12816,-11.51671 6.91872,-7.18596 12.72742,-13.69732 12.90824,-14.4697 z m 70.08646,25.57381 c 0.81375,-0.81375 0.71229,-1.66914 -0.3992,-3.36549 -0.81964,-1.25093 -1.71405,-5.06238 -1.98756,-8.46991 -0.35985,-4.48286 -0.92726,-6.36781 -2.05264,-6.81887 -9.39925,-3.76731 -22.26651,-7.89151 -22.65581,-7.26162 -0.49459,0.80027 24.09323,27.00696 25.33864,27.00696 0.36603,0 1.15647,-0.49098 1.75657,-1.09107 z m 302.4864,104.54811 c -1.6745,-0.75777 -3.2971,-1.1975 -3.6056,-0.97714 -0.3085,0.22035 -0.3814,0.14911 -0.1621,-0.15831 0.2192,-0.30743 -0.6636,-2.12428 -1.962,-4.03746 l -2.3605,-3.47851 -18.0984,0.27007 c -9.954,0.14853 -20.1362,-0.0356 -22.6269,-0.40906 -13.90666,-2.08544 -22.39506,-17.22886 -16.86426,-30.08584 2.5076,-5.82895 7.882,-10.88145 13.3022,-12.50538 2.31766,-0.69438 11.41176,-1.11587 24.07566,-1.11587 15.5368,0 21.135,-0.3275 23.6645,-1.38439 7.5995,-3.17529 9.4015,-13.20267 3.444,-19.16444 l -3.0057,-3.00792 -19.4989,-0.29364 -19.4988,-0.29364 -2.359,3.61642 c -6.22286,9.54024 -19.35656,9.7538 -25.64846,0.41705 -3.1361,-4.65355 -3.6741,-9.01187 -1.7383,-14.08071 4.4702,-11.70506 20.2909,-13.54368 27.16446,-3.15695 l 2.4457,3.69572 h 19.6138 c 21.3501,0 24.181,0.53552 29.4956,5.57963 4.9586,4.70632 6.6387,9.28109 6.2481,17.01456 -0.2807,5.55839 -0.8638,7.68342 -2.9901,10.89645 -6.0366,9.12196 -11.9369,10.65547 -41.1956,10.70689 -16.572,0.0291 -18.0846,0.17781 -20.40876,2.00605 -5.6506,4.44474 -5.5067,15.02376 0.2602,19.13011 2.58416,1.84017 4.14106,1.9713 23.40476,1.9713 h 20.6364 l 2.4794,-3.74655 c 4.5044,-6.8067 15.0173,-8.7849 21.6368,-4.07139 1.5387,1.09567 2.9652,1.89675 3.1699,1.78015 0.2047,-0.11658 0.2933,-0.061 0.1969,0.12361 -0.096,0.18456 0.7148,2.04329 1.8026,4.13049 3.4859,6.68788 1.3801,14.47769 -5.2525,19.42963 -3.2666,2.43892 -11.6209,3.07434 -15.7651,1.19907 z M 359.65939,377.135 c -1.58011,-1.58011 -1.91477,-3.16598 -1.87682,-8.89388 0.057,-8.59933 2.06127,-13.28602 6.20357,-14.50591 5.84284,-1.7207 11.0835,-4.51244 14.83777,-7.90419 l 3.85236,-3.48038 5.34382,2.61449 c 5.69335,2.7855 13.28346,3.47949 21.26602,1.94443 6.12354,-1.17758 7.10177,0.9064 7.10177,15.12933 0,11.31583 -0.0203,11.4183 -2.81054,14.20857 l -2.81053,2.81054 h -24.59222 c -23.3102,0 -24.69245,-0.10025 -26.5152,-1.923 z m 115.59437,-1.77847 c -2.59646,-0.74155 -31.17819,-21.86073 -37.2975,-27.5593 -3.95962,-3.68737 -4.26138,-4.31388 -4.26138,-8.84737 0,-6.15336 0.49684,-6.68058 21.09959,-22.38936 18.57781,-14.16485 18.86286,-14.34439 22.84379,-14.38842 6.46189,-0.0715 10.86211,4.31354 10.86211,10.82463 0,3.7284 -1.23828,5.46127 -7.99085,11.1826 l -4.62561,3.91919 16.64435,0.12272 c 9.1544,0.0675 26.14549,0.0995 37.75799,0.0711 23.8952,-0.0585 26.40562,0.4519 29.00164,5.89582 2.16352,4.53695 1.14362,9.42847 -2.6275,12.60166 l -2.92558,2.46173 H 514.2714 474.80799 l 5.63786,4.37789 c 8.20544,6.37166 9.49453,9.54446 6.64687,16.35985 -0.95677,2.28988 -2.48674,3.81985 -4.77661,4.77662 -3.63052,1.51693 -3.77646,1.52913 -7.06235,0.59068 z m 443.13846,-0.43917 c -3.69259,-1.29836 -6.83192,-6.18469 -6.83192,-10.63376 0,-2.84388 4.62186,-8.22959 11.05725,-12.88466 l 2.8845,-2.08653 -39.5881,-0.0305 -39.5881,-0.0305 -2.92557,-2.46171 c -3.5044,-2.94876 -4.70117,-7.83201 -2.95348,-12.0513 2.45918,-5.93699 1.97096,-5.86814 44.33462,-6.25201 21.22953,-0.19236 38.75125,-0.50186 38.93717,-0.68777 0.1859,-0.18591 -1.64862,-1.76471 -4.07673,-3.50845 -7.9719,-5.72498 -9.90701,-11.45974 -5.88585,-17.44295 2.37162,-3.5288 7.29344,-5.43474 11.37373,-4.4044 1.971,0.4977 9.74352,6.14709 34.09634,24.78256 5.44863,4.16944 7.21895,6.8281 7.33817,11.02006 0.14288,5.02489 -1.14572,7.02608 -8.19178,12.72146 -12.63681,10.21439 -30.39297,23.30309 -32.91282,24.26113 -2.98214,1.13381 -2.95572,1.13497 -7.06743,-0.31076 z M 351.6218,360.3142 c -0.30323,-0.79021 -1.90792,-2.26173 -3.56598,-3.27006 -3.25234,-1.97787 -5.30736,-1.72745 -11.36748,1.3852 -5.90611,3.03354 -10.6359,-0.65217 -10.66727,-8.3125 -0.0263,-6.44374 7.82155,-14.32638 14.2633,-14.32638 1.39295,0 2.118,-1.10913 2.98556,-4.56713 2.23918,-8.92503 8.81648,-24.31396 10.94721,-25.61319 3.37626,-2.0587 12.67258,-3.7873 17.14314,-3.18767 9.90065,1.32796 13.92428,15.81208 8.85763,31.88534 -2.34128,7.4274 -7.73747,12.41834 -15.0732,13.94123 -5.96876,1.23912 -6.77473,1.94884 -9.91825,8.7338 -2.39264,5.16426 -2.76815,5.51129 -3.60466,3.33136 z m 42.31754,-18.21403 c -2.56344,-0.68888 -5.74996,-2.34167 -7.08116,-3.67288 -2.27917,-2.27916 -2.34831,-2.63702 -1.18512,-6.13422 0.67938,-2.04262 1.25182,-6.95892 1.27207,-10.92511 0.0302,-5.90769 -0.4522,-8.28547 -2.66853,-13.15381 -2.51073,-5.51506 -2.59757,-6.09645 -1.20698,-8.0818 1.43831,-2.05346 2.02456,-2.13055 14.62074,-1.92244 7.2173,0.11923 13.74376,0.45524 14.50325,0.74669 3.39942,1.30448 4.19427,5.54258 4.19427,22.36361 0,18.92333 -0.14816,19.28685 -8.5994,21.09932 -6.10738,1.3098 -7.94434,1.26744 -13.84914,-0.31936 z m 215.44949,-105.3774 c -1.76033,-1.08177 -7.25786,-9.27781 -24.48511,-36.50379 -5.52114,-8.72561 -11.83903,-18.58069 -14.03977,-21.90017 -3.90989,-5.89746 -4.01523,-5.97438 -4.60872,-3.36525 -0.33404,1.4686 -0.65855,4.55231 -0.72112,6.8527 -0.0923,3.39289 -0.73094,4.79971 -3.38285,7.45162 -4.4057,4.4057 -9.66856,4.57315 -14.2631,0.45385 l -3.14005,-2.81526 0.25695,-9.85995 c 0.36453,-13.98814 2.8514,-38.66073 4.19377,-41.6069 1.56978,-3.44529 5.27183,-5.63584 9.38693,-5.55437 1.90815,0.0378 11.25749,2.91074 20.77634,6.38435 25.04346,9.13884 27.1424,10.05559 28.79403,12.5763 2.00264,3.0564 1.88652,9.98101 -0.21079,12.57018 -3.77592,4.66145 -7.86462,5.20668 -16.70705,2.22788 -3.21799,-1.08406 -5.95761,-1.84124 -6.08804,-1.68263 -0.13043,0.15862 8.18748,13.26865 18.48427,29.1334 10.29678,15.86475 19.33917,30.27399 20.09419,32.02052 1.74967,4.04739 0.87336,8.97139 -2.09248,11.75766 -2.57052,2.41488 -9.60577,3.48324 -12.2474,1.85986 z m 171.65609,-0.43531 c -3.63164,-1.5786 -6.5609,-6.85092 -5.70375,-10.26608 0.77639,-3.09333 10.06977,-18.27032 26.38277,-43.08555 7.46559,-11.35662 13.4686,-20.75361 13.34001,-20.88221 -0.1286,-0.12859 -3.02383,0.61455 -6.43385,1.65143 -9.873,3.00208 -14.08943,2.13852 -16.7302,-3.42648 -3.34291,-7.04466 -0.31344,-13.05306 8.12642,-16.11718 2.90853,-1.05596 12.53874,-4.66762 21.40045,-8.02591 20.54972,-7.78765 25.61254,-8.00051 29.11674,-1.22414 1.46746,2.83775 2.55007,10.40481 3.84108,26.84765 0.35293,4.49501 0.94799,11.09396 1.32234,14.66435 0.78918,7.52678 -0.24239,10.86073 -4.36755,14.11559 -2.20839,1.74246 -3.59338,2.08218 -6.95687,1.70642 -5.58942,-0.62444 -8.77626,-3.82635 -9.38266,-9.42704 -1.27745,-11.79863 -0.36676,-12.15614 -11.22617,4.40707 -17.65315,26.92529 -22.54495,34.54225 -26.13992,40.7022 -3.55874,6.09787 -7.95911,9.81222 -11.54919,9.74866 -1.05765,-0.0187 -3.32549,-0.64367 -5.03965,-1.38878 z M 882.23455,132.08803 c -1.58647,-1.02415 -13.22264,-12.24778 -25.85815,-24.94142 -26.39724,-26.51866 -24.46541,-23.02424 -24.55791,-44.422106 -0.0957,-22.1329 0.41701,-22.625139 24.26969,-23.30193 12.11852,-0.343851 17.34459,-0.141475 19.57783,0.758114 1.67555,0.674944 3.29808,1.04765 3.60562,0.828246 0.30755,-0.219405 0.33043,-0.09807 0.0509,0.269643 -0.27958,0.367706 10.10462,11.312622 23.07599,24.322052 l 23.5843,23.653481 v 4.23047 c 0,4.20252 -0.11594,4.3467 -17.54737,21.82093 -19.06626,19.11306 -20.83536,20.24623 -26.20087,16.78252 z M 905.5802,92.14845 c -0.14831,-1.00365 -1.02344,-2.29733 -1.94474,-2.87483 -1.42069,-0.89056 -3.2095,0.47915 -11.77837,9.01887 -5.55681,5.53789 -10.10329,10.59294 -10.10329,11.23343 0,0.64049 0.96427,1.83994 2.14283,2.66542 2.07836,1.45575 2.44078,1.20432 12.04802,-8.35859 6.67818,-6.64738 9.81734,-10.45401 9.63555,-11.6843 z m -21.58506,1.10367 c 11.9632,-11.95794 11.88855,-11.84934 9.76108,-14.200158 -0.94818,-1.047726 -2.20547,-1.904961 -2.79399,-1.904961 -1.26979,0 -20.74643,19.351329 -20.74643,20.612949 0,1.16286 2.96306,4.38605 4.03205,4.38605 0.46724,0 4.85352,-4.00225 9.74729,-8.89388 z M 857.16688,64.098083 c 2.34795,-2.347954 1.9715,-8.633932 -0.62602,-10.453301 -2.91475,-2.041572 -6.13436,-1.878973 -8.43955,0.426223 -2.3512,2.351194 -2.52111,7.360435 -0.33173,9.779665 1.96673,2.17322 7.33028,2.314426 9.3973,0.247413 z M 500.07524,119.64221 c -3.41708,-0.16035 -6.77032,-0.75417 -7.45162,-1.31961 -0.7435,-0.61705 -1.23875,-3.20244 -1.23875,-6.46673 0,-5.39762 0.0456,-5.48382 6.03525,-11.42028 3.31937,-3.28987 6.38749,-5.98159 6.81802,-5.98159 0.43053,0 2.55197,1.51436 4.71432,3.36525 2.16235,1.85088 4.64234,3.36525 5.51109,3.36525 0.86875,0 6.83674,-5.29818 13.2622,-11.77374 l 11.68265,-11.77373 5.79473,5.73426 5.79473,5.73426 v 14.09449 c 0,11.89165 -0.24651,14.29908 -1.57726,15.4035 -1.22243,1.01452 -6.25152,1.31139 -22.35487,1.31961 -11.42769,0.006 -23.57341,-0.1206 -26.99049,-0.28094 z m -37.02168,-9.13825 c -1.08711,-1.65915 -1.39149,-4.46984 -1.20715,-11.14711 0.32411,-11.73987 0.61597,-11.97626 13.67371,-11.07502 5.28825,0.365 9.93288,1.14587 10.3214,1.73528 0.38853,0.5894 0.71303,5.25932 0.72113,10.37758 0.0193,12.21878 -0.0915,12.3278 -12.5313,12.3278 -8.88606,0 -9.62153,-0.14863 -10.97779,-2.21853 z m 28.55136,-31.150933 0.2607,-18.946959 2.40375,-0.667935 c 1.32206,-0.36737 13.8951,-0.711067 27.9401,-0.763786 19.06985,-0.07154 25.93674,0.208511 27.11753,1.106032 1.2592,0.957135 1.63926,3.307098 1.8664,11.540027 0.15687,5.685983 -0.0637,10.337234 -0.49,10.336124 -0.42637,-9.6e-4 -2.97298,-2.165405 -5.65914,-4.809529 -2.68616,-2.644124 -5.32746,-4.807499 -5.86955,-4.807499 -0.54209,0 -6.23747,5.192099 -12.65642,11.537998 -6.41894,6.3459 -12.02985,11.538 -12.4687,11.538 -0.43885,0 -2.47413,-1.51436 -4.52284,-3.36525 -2.0487,-1.85089 -4.39859,-3.36525 -5.22196,-3.36525 -0.82337,0 -3.78448,2.16337 -6.58025,4.8075 -2.79578,2.64412 -5.37508,4.8075 -5.73177,4.8075 -0.35671,0 -0.53124,-8.52614 -0.38785,-18.946973 z m 18.21311,-2.835798 c 1.9968,-1.807072 2.32873,-6.107226 0.60453,-7.831426 -1.91247,-1.912471 -6.27696,-1.371089 -7.92593,0.983143 -1.97816,2.824223 -1.88802,4.202302 0.42624,6.516556 2.33966,2.339664 4.55847,2.44641 6.89516,0.331727 z M 464.2225,82.8729 c -1.4378,-0.86642 -1.68263,-2.54098 -1.68263,-11.508849 0,-9.39193 0.19546,-10.599488 1.85979,-11.490212 2.64176,-1.413827 19.57928,-1.286159 21.02391,0.158465 1.28052,1.280526 1.67429,21.507536 0.43267,22.225966 -1.8014,1.04233 -20.06301,1.56115 -21.63374,0.61463 z m 42.19866,-27.359645 c -0.41131,-1.071861 -2.11682,-1.44225 -6.64107,-1.44225 -3.45282,0 -6.58701,-0.499374 -7.24142,-1.1538 -1.57719,-1.577177 -1.57719,-20.152709 0,-21.729896 1.54855,-1.548553 21.53409,-1.598118 22.48732,-0.05577 0.37324,0.603918 0.88652,5.072566 1.1406,9.930332 0.58164,11.119813 -0.24665,13.009141 -5.70329,13.009141 -3.38423,0 -3.76369,0.200261 -2.73294,1.44225 0.68993,0.831312 0.78338,1.442249 0.2206,1.442249 -0.537,0 -1.2254,-0.649012 -1.5298,-1.442249 z m -43.3338,-2.295773 c -0.31044,-0.502278 -0.65323,-5.227377 -0.76179,-10.500203 -0.26377,-12.812717 -0.39404,-12.68377 12.81321,-12.68377 12.35094,0 11.67117,-0.843245 11.23893,13.941748 l -0.28109,9.614998 -11.22243,0.270239 c -6.36678,0.153321 -11.46662,-0.124898 -11.78683,-0.643012 z m 58.532,-0.379466 c -0.27317,-0.711885 -0.37306,-6.02596 -0.22197,-11.809045 l 0.27472,-10.514712 11.30978,-0.270989 c 13.57153,-0.325189 13.13983,-0.806641 12.31302,13.731987 l -0.5468,9.614998 -11.31603,0.271057 c -8.78912,0.21052 -11.42694,-0.01798 -11.81272,-1.023296 z"
       id="path1" />
  </g>
</svg>
